{"title":"Ran.1985.Jap.720p.x264.AC3(5.1)Multisub.mkv-Zen_Bud","uid":5740395,"size":2309155331,"categoryP":"video","categoryS":"hd___movies","magnet":"?xt=urn:btih:ee0306799b1109ce58f267c5c1e2d7acf0c51b2b&amp;dn=Ran.1985.Jap.720p.x264.AC3%285.1%29Multisub.mkv-Zen_Bud&amp;tr=udp%3A%2F%2Ftracker.openbittorrent.com%3A80&amp;tr=udp%3A%2F%2Fopen.demonii.com%3A1337&amp;tr=udp%3A%2F%2Ftracker.coppersurfer.tk%3A6969&amp;tr=udp%3A%2F%2Fexodus.desync.com%3A6969","seeders":0,"leechers":0,"uploader":"Zen_Bud","files":-1,"time":1281013725,"description":"General\nComplete name                    : Ran.1985.mkv\nFormat                           : Matroska\nFile size                        : 2.15 GiB\nDuration                         : 2h 42mn\nOverall bit rate                 : 1 897 Kbps\nWriting application              : HandBrake 0.9.4\n\nVideo\n\nFormat                           : AVC\nDuration                         : 2h 42mn\nBit rate                         : 1 572 Kbps\nWidth                            : 1 280 pixels\nHeight                           : 704 pixels\nDisplay aspect ratio             : 16:9\nStream size                      : 1.75 GiB (81%)\nWriting library                  : x264 core 79\n\n\nAudio\n\nFormat                           : AC-3\nCodec ID                         : A_AC3\nDuration                         : 2h 42mn\nBit rate                         : 320 Kbps\nChannel(s)                       : 6 channels\nChannel positions                : Front: L C R, Side: L R, LFE\nSampling rate                    : 48.0 KHz\nStream size                      : 371 MiB (17%)\nLanguage                         : Japanese\n\nText #1\nLanguage                         : Danish\n\nText #2\nLanguage                         : Dutch\n\nText #3\nLanguage                         : English\n\nText #4\nLanguage                         : Finnish\n\nText #5\nLanguage                         : French\n\nText #6\nLanguage                         : German\n\nText #7\nLanguage                         : Italian\n\nText #8\nLanguage                         : Norwegian\n\nText #9\nLanguage                         : Spanish\n\nText #10\nLanguage                         : Swedish\n\n","torrent":{"xt":"urn:btih:ee0306799b1109ce58f267c5c1e2d7acf0c51b2b","amp;dn":"Ran.1985.Jap.720p.x264.AC3%285.1%29Multisub.mkv-Zen_Bud","amp;tr":["udp%3A%2F%2Ftracker.openbittorrent.com%3A80","udp%3A%2F%2Fopen.demonii.com%3A1337","udp%3A%2F%2Ftracker.coppersurfer.tk%3A6969","udp%3A%2F%2Fexodus.desync.com%3A6969"],"infoHash":"ee0306799b1109ce58f267c5c1e2d7acf0c51b2b","infoHashBuffer":{"type":"Buffer","data":[238,3,6,121,155,17,9,206,88,242,103,197,193,226,215,172,240,197,27,43]},"announce":[],"urlList":[]}}